<svg xmlns="http://www.w3.org/2000/svg" fill="none" viewBox="0 0 95 26" height="26" width="95">
<g clip-path="url(#clip0_311_5816)">
<mask height="26" width="95" y="0" x="0" maskUnits="userSpaceOnUse" style="mask-type:luminance" id="mask0_311_5816">
<path fill="white" d="M94.8349 0H0V25.8615H94.8349V0Z"></path>
</mask>
<g mask="url(#mask0_311_5816)">
<path fill="#191919" d="M26.4667 20.2805L34.2838 0.226562H38.8148L46.5484 20.2805H42.1862L40.9394 16.8534H32.0739L30.8271 20.2805H26.4648H26.4667ZM33.3783 13.2H39.6665L36.5512 4.53311L33.3783 13.2Z"></path>
<path fill="#191919" d="M47.5684 20.281V5.35371H51.1383L51.3925 7.13867C51.771 6.57275 52.194 6.14229 52.6672 5.84912C53.1385 5.55596 53.6302 5.35742 54.1404 5.25352C54.6507 5.14961 55.1684 5.09766 55.699 5.09766C55.9439 5.09766 56.1703 5.10322 56.3781 5.1125C56.5859 5.12178 56.7362 5.12734 56.8309 5.12734V8.95147H55.8957C55.0069 8.95147 54.2332 9.10361 53.5727 9.4042C52.9121 9.70664 52.4056 10.1779 52.0567 10.8199C51.7079 11.4619 51.5335 12.2839 51.5335 13.284V20.281H47.5684Z"></path>
<path fill="#191919" d="M68.4718 25.8604V18.6648C67.9059 19.3644 67.2156 19.8412 66.4048 20.0954C65.5921 20.3496 64.7998 20.4776 64.0261 20.4776C62.8924 20.4776 61.9016 20.2847 61.0518 19.8969C60.202 19.5109 59.4987 18.9729 58.9421 18.2826C58.3854 17.5942 57.9698 16.7908 57.6952 15.8742C57.4206 14.9595 57.2852 13.9631 57.2852 12.8869C57.2852 11.358 57.5579 10.0072 58.1071 8.83643C58.6545 7.66563 59.4523 6.75088 60.5007 6.08848C61.549 5.42793 62.7996 5.09766 64.2543 5.09766C65.1041 5.09766 65.9112 5.23867 66.6757 5.52256C67.4401 5.80645 68.0673 6.25918 68.559 6.88262L68.7575 5.35371H72.4406V25.8604H68.4755H68.4718ZM64.874 16.9096C65.6663 16.9096 66.3287 16.7203 66.8575 16.3437C67.3863 15.967 67.7871 15.466 68.0617 14.8426C68.3345 14.2191 68.4718 13.54 68.4718 12.8034C68.4718 12.0668 68.3345 11.3636 68.0617 10.7494C67.789 10.1353 67.3826 9.64541 66.8445 9.27617C66.3064 8.90879 65.6311 8.72324 64.8202 8.72324C64.0094 8.72324 63.3099 8.9125 62.7811 9.28916C62.2522 9.66768 61.8645 10.1631 61.6195 10.7754C61.3746 11.3896 61.2521 12.0557 61.2521 12.7719C61.2521 13.4881 61.3746 14.1653 61.6195 14.7962C61.8645 15.4289 62.2522 15.9392 62.7811 16.3251C63.3099 16.7129 64.0075 16.9059 64.8777 16.9059L64.874 16.9096Z"></path>
<path fill="#191919" d="M82.2383 20.5066C81.2938 20.5066 80.3772 20.3972 79.4903 20.1801C78.6034 19.963 77.7944 19.6142 77.0689 19.1317C76.3416 18.6512 75.7664 18.0129 75.3415 17.2206C74.9166 16.4283 74.7051 15.4746 74.7051 14.3595C74.7051 13.6229 74.8146 12.9567 75.0316 12.363C75.2487 11.7674 75.5697 11.2404 75.9946 10.7766C76.4195 10.3146 76.9335 9.9416 77.5384 9.65771C77.0281 9.33672 76.6125 8.95449 76.2915 8.51103C75.9705 8.06758 75.7349 7.58145 75.5827 7.05264C75.4306 6.52383 75.3563 5.98574 75.3563 5.43838C75.3563 4.43828 75.5549 3.59219 75.952 2.90381C76.349 2.21543 76.876 1.65693 77.5384 1.23203C78.1989 0.807129 78.9448 0.49541 79.7761 0.296875C80.6073 0.0983398 81.4478 0 82.2977 0C83.1475 0 84.0065 0.0983398 84.8192 0.296875C85.6301 0.49541 86.3667 0.816406 87.0291 1.25986C87.6896 1.70332 88.2185 2.28037 88.6155 2.9873C89.0126 3.69609 89.2111 4.54961 89.2111 5.54971C89.2111 6.05996 89.1313 6.57393 88.9699 7.09346C88.8085 7.61299 88.5636 8.08984 88.2333 8.52402C87.903 8.9582 87.4818 9.32744 86.9734 9.62803C87.5783 9.89336 88.096 10.2515 88.532 10.7042C88.9662 11.1569 89.2965 11.695 89.5228 12.3185C89.7492 12.9419 89.8624 13.6414 89.8624 14.4151C89.8624 15.5303 89.6453 16.4729 89.2111 17.2484C88.777 18.0222 88.1925 18.6512 87.4559 19.1317C86.7192 19.6142 85.9028 19.963 85.0048 20.1801C84.1086 20.3972 83.1864 20.5066 82.2438 20.5066H82.2383ZM82.2661 16.8532C82.6817 16.8532 83.0974 16.8068 83.513 16.7122C83.9286 16.6176 84.3053 16.4617 84.6467 16.2446C84.9862 16.0275 85.2553 15.7529 85.4538 15.4227C85.6523 15.0924 85.7507 14.6823 85.7507 14.1906C85.7507 13.5857 85.5985 13.0903 85.2979 12.7044C84.9955 12.3185 84.5854 12.0253 84.0659 11.8268C83.5464 11.6282 82.9471 11.5299 82.268 11.5299C81.5889 11.5299 81.0081 11.6282 80.47 11.8268C79.9319 12.0253 79.5107 12.3185 79.2102 12.7044C78.9077 13.0922 78.7574 13.5876 78.7574 14.1906C78.7574 14.6823 78.8613 15.0924 79.0691 15.4227C79.277 15.7529 79.546 16.0275 79.8763 16.2446C80.2065 16.4617 80.5795 16.6176 80.9951 16.7122C81.4107 16.8068 81.8356 16.8532 82.2698 16.8532H82.2661ZM82.2939 8.44053C82.8988 8.44053 83.4128 8.34219 83.8377 8.14365C84.2626 7.94512 84.5929 7.66123 84.8285 7.29385C85.0642 6.92647 85.1829 6.51455 85.1829 6.06182C85.1829 5.4959 85.0604 5.02832 84.8155 4.65908C84.5706 4.2917 84.2255 4.00781 83.782 3.80928C83.3386 3.61074 82.8135 3.5124 82.2104 3.5124C81.6074 3.5124 81.1194 3.61074 80.6945 3.80928C80.2696 4.00781 79.9394 4.28613 79.7037 4.64424C79.4681 5.00234 79.3493 5.43652 79.3493 5.94678C79.3493 6.45703 79.4718 6.90049 79.7167 7.279C79.9616 7.65752 80.3067 7.94512 80.7502 8.14365C81.1936 8.34219 81.7076 8.44053 82.2939 8.44053Z"></path>
<path fill="#191919" d="M10.1105 18.9185C10.9454 19.3676 11.7804 19.7275 12.6005 19.9891C15.2909 20.8464 17.536 20.5551 18.9258 19.1653C19.9147 18.1763 20.3545 16.7309 20.1986 14.9849C20.0706 13.5618 19.5474 11.9698 18.679 10.3518C20.5809 6.80789 20.7961 3.40496 18.9258 1.53465C17.0944 -0.296697 13.8047 -0.202068 10.1142 1.78143C6.57022 -0.118572 3.16729 -0.333806 1.29697 1.53651C0.430469 2.40486 0 3.61834 0 5.0489C0 6.61677 0.519531 8.4407 1.54375 10.35C0.534375 12.2296 0 14.0683 0 15.6622C0 17.0723 0.419336 18.2877 1.29697 19.1672C2.28594 20.1561 3.73135 20.5959 5.47734 20.44C6.90049 20.312 8.49434 19.7887 10.1105 18.9185ZM2.65889 17.8053C1.8165 16.9629 1.68848 15.3672 2.3082 13.4245C3.00586 11.2387 4.52734 8.89715 6.59248 6.83015L5.23242 5.47009C4.27871 6.42381 3.44561 7.41648 2.74053 8.41843C1.68291 6.01189 1.62539 3.93006 2.65889 2.89842C3.50127 2.05603 5.09697 1.928 7.03965 2.54773C9.22539 3.24539 11.567 4.76687 13.634 6.83201L14.994 5.47195C14.0422 4.52009 13.0495 3.68699 12.0476 2.98191C14.4485 1.93172 16.5471 1.87976 17.5676 2.90027C18.41 3.74265 18.538 5.33836 17.9183 7.28103C17.2206 9.46677 15.6991 11.8084 13.634 13.8754L14.994 15.2354C15.9478 14.2817 16.7809 13.289 17.4859 12.2871C18.5436 14.6936 18.5992 16.7773 17.5676 17.8071C16.7252 18.6495 15.1295 18.7775 13.1868 18.1578C11.0011 17.4601 8.65947 15.9386 6.59248 13.8735L5.23242 15.2336C6.16943 16.1706 7.16397 17.0074 8.18262 17.7236C5.77607 18.7812 3.69238 18.8369 2.66074 17.8053H2.65889Z"></path>
<path fill="#191919" d="M90.6249 2.71562V0.767383H89.8809V0.244141H91.9404V0.767383H91.189V2.71562H90.623H90.6249Z"></path>
<path fill="#191919" d="M92.1406 2.71562V0.244141H92.8735L93.5025 1.38154L94.1315 0.244141H94.8366V2.71562H94.267V1.02715L93.6064 2.19608H93.3801L92.7065 1.02715V2.71747H92.1406V2.71562Z"></path>
</g>
</g>
<defs>
<clipPath id="clip0_311_5816">
<rect fill="white" height="25.9766" width="95"></rect>
</clipPath>
</defs>
</svg>
