<svg xmlns="http://www.w3.org/2000/svg" fill="none" viewBox="0 0 366 110" height="110" width="366">
<path fill="#2E3F56" d="M31.1 83.9C29.7 83.9 28.6 82.8 28.6 81.3V20.6C28.6 19.2 29.7 18 31.1 18C32.5 18 33.6 19.1 33.6 20.6V81.5C33.6 82.9 32.5 84.1 31.1 84.1V83.9ZM64.3 81.3V20.6C64.3 19.2 63.2 18 61.8 18C60.4 18 59.3 19.1 59.3 20.6V81.5C59.3 82.9 60.4 84.1 61.8 84.1C63.2 84.1 64.3 83 64.3 81.5V81.3ZM54 89.3V12.6C54 11.2 52.9 10 51.5 10C50.1 10 49 11.1 49 12.6V89.3C49 90.7 50.1 91.9 51.5 91.9C52.9 91.9 54 90.8 54 89.3ZM44 76.2V25.7C44 24.3 42.9 23.1 41.5 23.1C40.1 23.1 39 24.2 39 25.7V76.2C39 77.6 40.1 78.8 41.5 78.8C42.9 78.8 44 77.7 44 76.2ZM74.5 69.9V31.8C74.5 30.4 73.4 29.2 72 29.2C70.6 29.2 69.5 30.3 69.5 31.8V69.9C69.5 71.3 70.6 72.5 72 72.5C73.4 72.5 74.5 71.4 74.5 69.9ZM84.7 62.4V39.3C84.7 37.9 83.6 36.7 82.2 36.7C80.8 36.7 79.7 37.8 79.7 39.3V62.4C79.7 63.8 80.8 65 82.2 65C83.6 65 84.7 63.9 84.7 62.4ZM23.5 62.4V39.3C23.5 37.9 22.4 36.7 21 36.7C19.6 36.7 18.5 37.8 18.5 39.3V62.4C18.5 63.8 19.6 65 21 65C22.4 65 23.5 63.9 23.5 62.4ZM13.3 56.5V45.3C13.3 43.9 12.2 42.7 10.8 42.7C9.4 42.7 8.3 43.8 8.3 45.3V56.5C8.3 57.9 9.4 59.1 10.8 59.1C12.2 59.1 13.3 58 13.3 56.5Z"></path>
<path fill="#2E3F56" d="M117.6 28.3H127.7L149 78.4001H137.6L133.1 67.2H112.1L107.6 78.4001H96.4L117.7 28.3H117.6ZM129.1 57.6L122.5 41.5L115.9 57.6H129.1Z"></path>
<path fill="#2E3F56" d="M148.2 57.1001V28.7001H159.1V56.8001C159.1 64.9001 163.1 69.1001 169.8 69.1001C176.5 69.1001 180.5 65.1001 180.5 57.2001V28.7001H191.4V56.8001C191.4 71.9001 182.9 79.2001 169.6 79.2001C156.3 79.2001 148.1 71.7001 148.1 57.1001H148.2Z"></path>
<path fill="#2E3F56" d="M198.5 28.7001H217.9C233.5 28.7001 244.3 39.4001 244.3 53.4001C244.3 67.5001 233.5 78.4001 217.9 78.4001H198.5V28.7001ZM209.4 38.5001V68.5001H217.9C226.9 68.5001 232.9 62.5001 232.9 53.7001C232.9 44.8001 226.9 38.6001 217.9 38.6001H209.4V38.5001Z"></path>
<path fill="#2E3F56" d="M250.2 28.7001H261.1V78.4001H250.2V28.7001Z"></path>
<path fill="#2E3F56" d="M269.4 28.7001H306.9V38.4001H280.3V48.5001H303.7V58.2001H280.3V68.6001H307.3V78.3001H269.4V28.7001Z"></path>
<path fill="#2E3F56" d="M312.7 28.7001H322.8L346.1 59.3001V28.7001H356.9V78.4001H347.6L323.5 46.8001V78.4001H312.7V28.7001Z"></path>
</svg>
