<svg xmlns="http://www.w3.org/2000/svg" fill="none" viewBox="0 0 1095 146" height="146" width="1095">
<g clip-path="url(#clip0_8790_434)">
<mask height="146" width="1095" y="0" x="0" maskUnits="userSpaceOnUse" style="mask-type:luminance" id="mask0_8790_434">
<path fill="white" d="M-6.38187e-06 -9.15527e-05L0 146L1095 146L1095 -0.000139417L-6.38187e-06 -9.15527e-05Z"></path>
</mask>
<g mask="url(#mask0_8790_434)">
<path fill="#231F20" d="M636.302 6.69746L587.918 6.69746L587.918 144.465L636.302 144.465C675.147 144.465 706.452 113.625 706.452 75.5975C706.452 37.5702 675.18 6.73012 636.302 6.73012M636.302 116.14L619.027 116.14L619.027 35.0219L636.302 35.0219C659.445 35.0219 675.147 53.4475 675.147 75.5648C675.147 97.6821 659.412 116.108 636.302 116.108"></path>
<path fill="#231F20" d="M1050.09 86.0517C1066.02 79.8445 1076.71 64.9145 1076.71 47.6324C1076.71 25.1231 1058.25 6.69746 1035.7 6.69746L983.611 6.69746L983.611 144.465L1014.72 144.465L1014.72 88.6L1015.11 88.6L1057.89 144.465L1095 144.465L1050.09 86.0844L1050.09 86.0517ZM1032.22 62.399L1014.75 62.399L1014.75 35.0546L1032.22 35.0546C1040.58 35.0546 1046.62 41.2618 1046.62 48.8411C1046.62 56.4205 1040.58 62.4317 1032.22 62.4317"></path>
<path fill="#231F20" d="M187.833 5.16169C148.988 5.16169 117.289 36.7858 117.289 75.5972C117.289 114.409 148.988 146 187.833 146C226.678 146 258.376 114.376 258.376 75.5645C258.376 36.7531 226.71 5.12903 187.833 5.12903M187.833 116.107C165.476 116.107 148.594 97.6818 148.594 75.5645C148.594 53.4472 165.476 35.0216 187.833 35.0216C210.189 35.0216 227.071 53.4472 227.071 75.5645C227.071 97.6818 210.156 116.107 187.833 116.107Z"></path>
<path fill="#231F20" d="M118.6 23.1953C106.078 11.9896 89.5235 5.16171 71.4943 5.16171C32.6494 5.16171 -4.7739e-06 36.7858 -3.07883e-06 75.5645C-1.38376e-06 114.343 32.6494 146 71.4943 146C90.6381 146 108.143 138.257 120.895 125.778C114.076 117.349 108.897 107.581 105.717 96.9304L105.717 96.8977C98.7021 108.136 86.2455 116.107 71.4943 116.107C49.138 116.107 32.256 97.6818 32.256 75.5645C32.256 53.4473 49.1707 35.0216 71.4943 35.0216C85.6227 35.0216 97.5876 42.307 104.701 52.7612C107.389 41.9476 112.142 31.918 118.567 23.1953"></path>
</g>
<path fill="#231F20" d="M268.375 144.465L299.451 144.465L299.451 92.0303L349.966 92.0302L349.966 62.1376L299.451 62.1376L299.451 37.3741L349.966 37.3741L349.966 6.69746L268.375 6.69746L268.375 144.465Z"></path>
<path fill="#231F20" d="M366.879 144.465L397.955 144.465L397.955 92.0303L448.502 92.0302L448.502 62.1376L397.955 62.1376L397.955 37.3741L448.502 37.3741L448.502 6.69746L366.879 6.69746L366.879 144.465Z"></path>
<path fill="#231F20" d="M584.836 6.69746L548.679 6.69746L518.194 62.1376L487.74 6.69746L451.551 6.69746L502.656 91.9976L502.656 144.465L533.732 144.465L533.732 92.1283L584.836 6.69746Z"></path>
<path fill="#231F20" d="M974.008 72.1342C974.008 92.3893 965.977 110.978 951.389 124.471C937.818 137.049 919.428 144.236 900.94 144.236C891.499 144.236 882.354 142.406 873.765 138.813C864.619 134.99 856.359 129.241 849.213 121.727C836.395 108.267 829.315 90.6579 829.315 72.1016C829.315 48.2528 809.843 28.8472 785.913 28.8472C761.984 28.8472 742.512 48.2529 742.512 72.1016C742.512 84.4833 747.364 95.7217 756.149 103.693C764.278 111.076 775.325 115.323 786.471 115.323C793.223 115.323 799.878 113.755 805.746 110.782C812.105 107.548 817.514 102.713 821.775 96.473C824.922 106.535 829.905 115.781 836.33 123.785C829.577 130.351 821.906 135.48 813.482 138.943C804.992 142.439 795.944 144.203 786.635 144.203C768.146 144.203 749.789 137.016 736.218 124.471C721.631 110.978 713.6 92.3894 713.6 72.1016C713.6 51.8138 721.631 33.2576 736.218 19.765C749.789 7.18729 768.179 -1.19287e-05 786.667 -1.59695e-05C796.108 -1.80328e-05 805.254 1.82947 813.842 5.42312C822.988 9.24545 831.249 14.9953 838.395 22.5093C851.212 35.9691 858.293 53.578 858.293 72.1342C858.293 95.983 877.764 115.389 901.694 115.389C925.624 115.389 945.096 95.983 945.095 72.1342C945.095 59.7525 940.244 48.5142 931.459 40.5428C923.329 33.1595 912.282 28.9125 901.137 28.9125C894.384 28.9125 887.73 30.4806 881.862 33.4535C875.732 36.5571 870.52 41.1635 866.357 47.0441C863.931 39.5954 860.456 32.3428 855.801 25.5475C854.785 24.0774 853.245 22.2479 851.409 20.3204C858.096 13.8518 865.668 8.78807 873.995 5.35777C882.517 1.82946 891.598 0.0326306 900.973 0.0326285C919.461 0.0326245 937.818 7.21991 951.389 19.765C965.977 33.2575 974.008 51.8465 974.008 72.1342Z"></path>
</g>
<defs>
<clipPath id="clip0_8790_434">
<rect transform="translate(0 146) rotate(-90)" fill="white" height="1095" width="146"></rect>
</clipPath>
</defs>
</svg>
