<svg xmlns="http://www.w3.org/2000/svg" fill="none" viewBox="0 0 169 30" height="30" width="169">
<g clip-path="url(#clip0_11_150)">
<path fill="#19342E" d="M0 27.6346C0.659091 26.874 1.16667 26.1133 1.52121 25.3527C1.87576 24.5921 2.05455 23.7679 2.05455 22.8815V6.18911C2.05455 5.30274 1.87727 4.4785 1.52121 3.71789C1.16667 2.95729 0.659091 2.19668 0 1.43608V1.24517H6.77121L20.6182 19.6482V6.22547C20.6182 5.33911 20.4409 4.51486 20.0848 3.75426C19.7288 2.99365 19.2227 2.23305 18.5636 1.47244V1.24365H23.8136V1.47244C23.1545 2.23305 22.647 2.99365 22.2924 3.75426C21.9379 4.51486 21.7606 5.33911 21.7606 6.22547V27.8618H20.353L3.19545 5.35123V22.8815C3.19545 23.7679 3.37273 24.5921 3.72727 25.3527C4.08182 26.1133 4.58939 26.874 5.24849 27.6346V27.8633H0V27.6346Z"></path>
<path fill="#19342E" d="M28.0045 27.6757C28.3348 27.1939 28.5939 26.5787 28.7848 25.8303C28.9757 25.0818 29.0696 24.2636 29.0696 23.3757V14.8515C29.0696 13.8121 28.956 12.9681 28.7272 12.3212C28.4984 11.6742 28.156 11.1227 27.7 10.6651V10.4742L34.0151 8.34389H34.206V23.3757C34.206 24.2636 34.3 25.0818 34.4909 25.8303C34.6818 26.5787 34.9409 27.1939 35.2712 27.6757V27.8666H28.006V27.6757H28.0045ZM31.6348 6.09237C30.7727 6.09237 30.0499 5.80147 29.4666 5.21662C28.8833 4.63328 28.5909 3.90904 28.5909 3.04692C28.5909 2.1848 28.8818 1.46056 29.4666 0.877222C30.0499 0.293889 30.7727 0.00146484 31.6348 0.00146484C32.4969 0.00146484 33.2196 0.293889 33.803 0.877222C34.3863 1.46207 34.6787 2.1848 34.6787 3.04692C34.6787 3.90904 34.3863 4.63328 33.803 5.21662C33.2196 5.80147 32.4969 6.09237 31.6348 6.09237Z"></path>
<path fill="#19342E" d="M39.7999 27.6726C40.1302 27.1908 40.3893 26.5757 40.5802 25.8272C40.7711 25.0787 40.8651 24.2605 40.8651 23.3726V14.8484C40.8651 13.809 40.7514 12.9651 40.5226 12.3181C40.2938 11.6711 39.9514 11.1196 39.4954 10.662V10.4711L45.8105 8.34082H46.0014V13.5514H46.1923C46.6226 11.8772 47.3651 10.5908 48.4166 9.69082C49.4681 8.79082 50.9454 8.34082 52.8484 8.34082V13.0832H50.6423C49.0454 13.0832 47.8711 13.4135 47.1241 14.0742C46.3757 14.7348 46.0014 15.8514 46.0014 17.4257V23.3681C46.0014 24.2575 46.0954 25.0757 46.2863 25.8242C46.4772 26.5742 46.7363 27.1893 47.0666 27.6711V27.862H39.8014V27.6711L39.7999 27.6726Z"></path>
<path fill="#19342E" d="M59.7365 27.8971C58.1895 27.8971 56.9789 27.5289 56.1031 26.7941C55.2274 26.0592 54.791 25.0577 54.791 23.7911C54.791 22.3971 55.2925 21.2244 56.294 20.2744C57.2956 19.3229 58.5956 18.6198 60.194 18.1638C61.791 17.7077 63.4774 17.4789 65.2531 17.4789V15.1153C65.2531 13.6926 64.8213 12.5426 63.9592 11.6653C63.0971 10.788 61.9183 10.3486 60.4213 10.3486C59.3304 10.3486 58.3607 10.6047 57.5107 11.1138C56.6607 11.6229 55.9956 12.338 55.5137 13.2562H55.1334C55.5637 11.6077 56.4713 10.3017 57.8531 9.33803C59.235 8.3744 60.8637 7.89258 62.741 7.89258C65.1259 7.89258 66.9956 8.55924 68.3516 9.89106C69.7077 11.2244 70.3865 12.9683 70.3865 15.1244V24.6789C70.3865 25.2123 70.5001 25.5986 70.7289 25.8395C70.9577 26.0805 71.235 26.2002 71.5653 26.2002C71.794 26.2002 71.9956 26.1683 72.1744 26.1062C72.3531 26.0441 72.4668 25.9729 72.5168 25.8971L72.7062 26.0865C72.4016 26.6411 71.9137 27.0805 71.241 27.4062C70.5683 27.732 69.8153 27.8956 68.9774 27.8956C67.9122 27.8956 67.0562 27.6471 66.4092 27.1547C65.7622 26.6608 65.3759 25.982 65.2501 25.1199L65.1365 24.3971L65.7456 24.9668H65.0986C64.591 25.8547 63.9001 26.5653 63.0243 27.0971C62.1486 27.6289 61.0531 27.8956 59.735 27.8956L59.7365 27.8971ZM62.5122 25.4395C63.0198 25.4395 63.4819 25.3198 63.9001 25.0774C64.3183 24.8365 64.6486 24.5047 64.8895 24.085C65.1304 23.6653 65.2516 23.2138 65.2516 22.7305V18.3426C63.6789 18.3941 62.4304 18.788 61.5047 19.5259C60.5789 20.2638 60.1168 21.2805 60.1168 22.5774C60.1168 23.5441 60.3456 24.2623 60.8016 24.7335C61.2577 25.2047 61.8289 25.4395 62.5137 25.4395H62.5122Z"></path>
<path fill="#19342E" d="M112.236 27.6788C112.667 27.0955 112.997 26.3924 113.224 25.5682C113.453 24.7439 113.567 23.8515 113.567 22.8879V6.23182C113.567 5.2697 113.453 4.37576 113.224 3.55152C112.996 2.72727 112.667 2.02424 112.236 1.44091V1.25H123.039C126.032 1.25 128.536 1.85303 130.552 3.05606C132.567 4.25909 133.576 6.25758 133.576 9.04545C133.576 10.8455 133.106 12.3485 132.168 13.553C131.23 14.7576 130.006 15.6379 128.497 16.1955C126.988 16.753 125.383 17.0318 123.685 17.0318C123.076 17.0318 122.486 16.9803 121.915 16.8773C121.344 16.7742 120.78 16.6076 120.223 16.3742V15.7606C120.958 15.9379 121.718 16.0273 122.505 16.0273C124.229 16.0273 125.553 15.3621 126.479 14.0318C127.405 12.7015 127.868 11.0333 127.868 9.03182C127.868 7.81515 127.665 6.6803 127.259 5.62879C126.853 4.57727 126.239 3.73333 125.414 3.1C124.589 2.46667 123.582 2.14848 122.389 2.14848C121.73 2.14848 121.147 2.19242 120.639 2.28182C120.132 2.37121 119.612 2.51667 119.08 2.7197V22.8833C119.08 23.847 119.194 24.7409 119.423 25.5651C119.652 26.3894 119.98 27.0939 120.412 27.6773V27.8682H112.233V27.6773L112.236 27.6788Z"></path>
<path fill="#19342E" d="M144.805 27.8684C143.106 27.8684 141.571 27.4941 140.202 26.7472C138.832 25.9987 137.748 24.9017 136.948 23.4562C136.15 22.0108 135.75 20.3002 135.75 18.3214C135.75 16.3426 136.18 14.4472 137.042 12.8638C137.905 11.279 139.059 10.0502 140.505 9.17443C141.95 8.29867 143.523 7.8623 145.221 7.8623C146.794 7.8623 148.162 8.19261 149.329 8.8517C150.495 9.51079 151.383 10.3987 151.992 11.5153C152.602 12.632 152.906 13.8365 152.906 15.1305H138.298V14.2653H147.845C147.692 12.6396 147.268 11.3517 146.571 10.3987C145.874 9.44564 144.941 8.96988 143.776 8.96988C143.015 8.96988 142.342 9.17897 141.759 9.59715C141.176 10.0153 140.72 10.6365 140.389 11.4593C140.059 12.2835 139.895 13.2896 139.895 14.4805C139.895 16.5078 140.224 18.2502 140.883 19.7062C141.542 21.1638 142.436 22.2593 143.565 22.9941C144.692 23.729 145.955 24.0956 147.35 24.0956C148.592 24.0956 149.689 23.8184 150.639 23.2608C151.591 22.7047 152.306 21.932 152.789 20.9456H153.17C152.738 23.0502 151.774 24.7305 150.279 25.985C148.783 27.2411 146.958 27.8684 144.802 27.8684H144.805Z"></path>
<path fill="#19342E" d="M163.144 27.8681C162.079 27.8681 161.103 27.6332 160.215 27.1651C159.327 26.6954 158.624 26.0241 158.104 25.1499C157.585 24.2757 157.324 23.2423 157.324 22.0499V12.009C157.324 11.3241 157.165 10.7605 156.848 10.3166C156.532 9.87263 156.12 9.5499 155.612 9.34687V9.15748C156.829 8.70142 158.009 8.04384 159.15 7.18324C160.291 6.32263 161.33 5.36051 162.27 4.29688H162.459V8.34687H167.974L167.518 9.73172H162.459V22.0484C162.459 23.1893 162.764 24.0635 163.373 24.6711C163.982 25.2802 164.742 25.5832 165.654 25.5832C166.212 25.5832 166.694 25.4893 167.1 25.2984C167.506 25.1075 167.798 24.8863 167.976 24.6332L168.356 24.8226C167.976 25.7105 167.317 26.4408 166.377 27.0105C165.439 27.5817 164.361 27.8666 163.144 27.8666V27.8681Z"></path>
<path fill="#19342E" d="M93.8181 17.9558C90.903 18.7937 88.303 20.6301 85.756 23.4437C91.1757 16.3164 96.3514 14.6649 105.582 18.1225C100.556 13.6058 94.4348 11.4907 90.0408 13.571C86.7802 15.1134 83.9439 18.8831 82.756 21.6331C82.559 22.0907 82.1787 23.0437 80.7696 26.4255C80.1393 27.9377 79.6196 29.1786 79.2742 30.0013C80.3651 29.677 82.0423 29.2043 84.1105 28.7149C88.0378 27.7877 88.7696 27.8983 91.2908 27.2558C93.1666 26.777 96.3545 25.9377 99.8227 23.8301C101.406 22.868 103.489 21.3725 105.617 19.0861C102.321 17.6907 98.1211 16.7195 93.8211 17.9573L93.8181 17.9558Z"></path>
<path fill="#19342E" d="M96.0922 0.00599795C93.8847 -0.0167293 92.6907 2.75903 92.8347 6.18782C92.965 9.14085 93.9907 10.156 95.9241 10.6121C98.0301 11.1121 99.6422 9.85751 99.6074 6.69085C99.5786 3.70751 98.3119 0.0393313 96.0922 0.0075131V0.00599795Z"></path>
<path fill="#19342E" d="M105.127 11.6608C106.098 9.47896 105.995 5.90472 104.603 5.03805C103.212 4.15169 100.651 6.21078 100.079 8.50018C99.571 10.5335 99.9907 11.8411 101.129 13.1456C102.232 14.4108 104.021 14.1305 105.129 11.6623L105.127 11.6608Z"></path>
<path fill="#19342E" d="M85.3454 8.34371C85.9439 11.4376 87.7606 12.274 89.7166 11.2786C91.5166 10.3649 92.3136 9.12401 91.8499 6.21189C91.3181 2.83007 89.5984 0.41189 87.4454 0.972496C85.2909 1.53613 84.7803 5.4225 85.3454 8.34522V8.34371Z"></path>
<path fill="#19342E" d="M85.1379 15.7168C86.056 14.2047 86.2621 12.835 85.453 10.9259C84.5379 8.78044 81.7045 7.25317 80.4742 8.39559C79.2348 9.52589 79.6894 13.0759 80.9833 15.0365C82.45 17.2577 84.2545 17.1835 85.1394 15.7168H85.1379Z"></path>
</g>
<defs>
<clipPath id="clip0_11_150">
<rect fill="white" height="30" width="168.355"></rect>
</clipPath>
</defs>
</svg>
