<svg xmlns="http://www.w3.org/2000/svg" fill="none" viewBox="0 0 290 52" height="52" width="290">
<path fill="#1A2A49" d="M48.811 18.9631H55.2645V35.6211H57.717V18.9631H64.1335V16.8389H48.811V18.9631Z"></path>
<path fill="#1A2A49" d="M72.5107 22.121C71.7761 22.121 71.0943 22.2503 70.4706 22.5138C69.8469 22.7723 69.3025 23.1496 68.8427 23.6302C68.6577 23.8215 68.4991 24.0385 68.3458 24.2608V16.8389H66.0044V35.6211H68.3458V28.9899C68.3458 27.2843 68.6524 26.0387 69.2708 25.2583C69.8839 24.4779 70.756 24.0851 71.8765 24.0851C72.9072 24.0851 73.6735 24.4055 74.1757 25.0412C74.6831 25.677 74.9315 26.6693 74.9315 28.0183V35.6159H77.2729V27.181C77.2729 25.5116 76.8501 24.2505 76.0044 23.3925C75.1587 22.5397 73.9907 22.1107 72.5055 22.1107L72.5107 22.121Z"></path>
<path fill="#1A2A49" d="M90.6292 24.085C90.143 23.4752 89.5193 22.9945 88.7529 22.643C87.9918 22.2916 87.088 22.1158 86.0362 22.1158C84.9844 22.1158 84.107 22.3019 83.3353 22.6792C82.5637 23.0565 81.9241 23.5682 81.422 24.2142C80.9146 24.8603 80.5341 25.6046 80.2804 26.4367C80.0214 27.274 79.8945 28.1475 79.8945 29.0623C79.8945 29.9771 80.0267 30.8454 80.2962 31.662C80.5605 32.4786 80.9569 33.2022 81.4802 33.8328C82.0034 34.4633 82.6641 34.9492 83.4622 35.3006C84.2603 35.6521 85.1958 35.8278 86.2582 35.8278C87.0087 35.8278 87.6958 35.7451 88.3089 35.5849C88.922 35.4247 89.5087 35.1766 90.0584 34.8458C90.6081 34.515 91.1313 34.086 91.6282 33.564L90.0002 32.1634C89.4876 32.7216 88.9326 33.1247 88.3459 33.3779C87.7592 33.6312 87.0668 33.7552 86.2793 33.7552C85.0478 33.7552 84.0753 33.3986 83.3565 32.675C82.6377 31.9566 82.2518 30.9488 82.199 29.6566H91.9823C92.0193 29.4602 92.0404 29.2328 92.051 28.9692C92.0616 28.7108 92.0668 28.5403 92.0668 28.4731C92.0668 27.6668 91.9453 26.8812 91.7074 26.1266C91.4696 25.372 91.1049 24.6897 90.6186 24.0799L90.6292 24.085ZM82.1831 27.9666C82.236 27.2481 82.421 26.5917 82.7328 25.9974C83.0446 25.403 83.4833 24.9275 84.0542 24.5709C84.625 24.2091 85.3015 24.0333 86.0943 24.0333C86.7391 24.0333 87.2941 24.1367 87.7592 24.3435C88.2296 24.5502 88.6155 24.8293 88.9167 25.1807C89.218 25.5322 89.4506 25.9198 89.6038 26.354C89.7571 26.783 89.8364 27.2171 89.8364 27.6461C89.8364 27.7546 89.8364 27.8632 89.8258 27.9717H82.1725L82.1831 27.9666Z"></path>
<path fill="#1A2A49" d="M104.091 16.8389H101.67V35.6211H112.691V33.4917H104.091V16.8389Z"></path>
<path fill="#1A2A49" d="M123.674 22.9946C122.691 22.4105 121.554 22.1211 120.27 22.1211C118.985 22.1211 117.838 22.4157 116.84 22.9946C115.841 23.5786 115.058 24.3849 114.498 25.4186C113.938 26.4523 113.658 27.6307 113.658 28.9642C113.658 30.2976 113.943 31.4812 114.514 32.5201C115.085 33.5641 115.867 34.3755 116.871 34.9596C117.87 35.5436 119.007 35.8331 120.275 35.8331C121.544 35.8331 122.675 35.5384 123.663 34.9441C124.657 34.3497 125.434 33.5382 126.004 32.5046C126.575 31.4709 126.861 30.2924 126.861 28.959C126.861 27.6255 126.575 26.4471 126.004 25.4134C125.434 24.3797 124.657 23.5734 123.674 22.9894V22.9946ZM123.991 31.5122C123.642 32.241 123.15 32.8043 122.516 33.2075C121.882 33.6106 121.131 33.8122 120.27 33.8122C119.408 33.8122 118.626 33.6106 117.981 33.2075C117.336 32.8043 116.84 32.2358 116.491 31.5122C116.142 30.7835 115.967 29.9358 115.967 28.9642C115.967 27.9925 116.142 27.1242 116.491 26.4058C116.84 25.6873 117.336 25.124 117.981 24.7208C118.626 24.3177 119.387 24.1161 120.27 24.1161C121.152 24.1161 121.882 24.3125 122.516 24.7105C123.15 25.1033 123.642 25.6667 123.991 26.3954C124.34 27.1242 124.514 27.9821 124.514 28.9693C124.514 29.9565 124.34 30.7886 123.991 31.5174V31.5122Z"></path>
<path fill="#1A2A49" d="M136.142 22.1211C135.386 22.1211 134.699 22.2503 134.076 22.5139C133.452 22.7723 132.918 23.1444 132.479 23.6199C132.3 23.8163 132.136 24.0334 131.983 24.266V22.3381H129.641V35.6211H131.983V28.99C131.983 27.8581 132.12 26.9277 132.395 26.199C132.67 25.4702 133.071 24.9379 133.595 24.5968C134.118 24.2556 134.757 24.0851 135.508 24.0851C136.539 24.0851 137.305 24.4055 137.807 25.0412C138.314 25.677 138.563 26.6693 138.563 28.0183V35.6159H140.904V27.181C140.904 25.5116 140.482 24.2505 139.636 23.3925C138.79 22.5397 137.622 22.1107 136.137 22.1107L136.142 22.1211Z"></path>
<path fill="#1A2A49" d="M172.072 32.6803L168.108 22.333H165.545L171.11 35.6211H173.066L178.605 22.333H176.068L172.072 32.6803Z"></path>
<path fill="#1A2A49" d="M183.203 16.8389H180.45V19.94H183.203V16.8389Z"></path>
<path fill="#1A2A49" d="M182.987 22.333H180.672V35.616H182.987V22.333Z"></path>
<path fill="#1A2A49" d="M189.847 17.4849L187.479 18.7771V22.333H184.667V24.1109H187.479V32.2203C187.479 33.0627 187.627 33.7553 187.918 34.2928C188.214 34.8303 188.621 35.2231 189.144 35.4661C189.667 35.709 190.249 35.8279 190.894 35.8279C191.227 35.8279 191.57 35.802 191.93 35.7452C192.289 35.6935 192.643 35.6004 192.992 35.4764V33.6984C192.696 33.7708 192.421 33.8277 192.167 33.8742C191.908 33.9207 191.692 33.9414 191.507 33.9414C190.883 33.9414 190.45 33.7398 190.212 33.3367C189.974 32.9335 189.852 32.3598 189.852 31.6259V24.1058H192.992V22.3278H189.852V17.4746L189.847 17.4849Z"></path>
<path fill="#1A2A49" d="M200.54 32.6803L196.57 22.333H194.012L199.303 34.9751L196.708 41.0894H199.245L207.072 22.333H204.535L200.54 32.6803Z"></path>
<path fill="#1A2A49" d="M225.534 26.1886C224.726 25.7028 223.764 25.2532 222.643 24.8397C221.761 24.5141 221.01 24.204 220.381 23.899C219.757 23.5941 219.276 23.2374 218.949 22.8343C218.616 22.4312 218.452 21.9402 218.452 21.3665C218.452 20.8289 218.589 20.3534 218.864 19.94C219.139 19.5265 219.52 19.206 220.006 18.9683C220.492 18.7357 221.047 18.6168 221.671 18.6168C222.458 18.6168 223.161 18.8081 223.764 19.1957C224.372 19.5833 224.884 20.1415 225.307 20.8806L227.236 19.7229C226.666 18.6633 225.915 17.8622 224.974 17.3247C224.039 16.7872 222.96 16.5184 221.75 16.5184C220.608 16.5184 219.609 16.7303 218.748 17.1542C217.886 17.578 217.215 18.1568 216.734 18.8908C216.259 19.6299 216.015 20.4723 216.015 21.4233C216.015 22.3743 216.237 23.1806 216.676 23.837C217.115 24.4934 217.738 25.0568 218.537 25.5219C219.335 25.9871 220.27 26.4212 221.333 26.814C222.194 27.1396 222.955 27.4601 223.605 27.7857C224.255 28.1113 224.768 28.4886 225.133 28.9176C225.497 29.3466 225.682 29.8944 225.682 30.5612C225.682 31.1917 225.519 31.7499 225.186 32.2461C224.853 32.7423 224.403 33.1196 223.838 33.3935C223.267 33.6623 222.627 33.7966 221.909 33.7966C220.677 33.7966 219.636 33.471 218.78 32.8146C217.923 32.1582 217.395 31.2021 217.194 29.9461L214.826 30.5147C215.101 32.1479 215.857 33.4607 217.088 34.4479C218.32 35.435 219.9 35.9312 221.829 35.9312C223.061 35.9312 224.144 35.6935 225.08 35.218C226.015 34.7425 226.75 34.0912 227.284 33.2643C227.818 32.4373 228.082 31.4967 228.082 30.4371C228.082 29.45 227.855 28.6178 227.405 27.9459C226.956 27.274 226.327 26.6952 225.519 26.2093L225.534 26.1886Z"></path>
<path fill="#1A2A49" d="M233.389 17.4849L231.021 18.7771V22.333H228.209V24.1109H231.021V32.2203C231.021 33.0627 231.169 33.7553 231.46 34.2928C231.756 34.8303 232.162 35.2231 232.686 35.4661C233.209 35.709 233.79 35.8279 234.435 35.8279C234.768 35.8279 235.112 35.802 235.471 35.7452C235.831 35.6935 236.185 35.6004 236.534 35.4764V33.6984C236.238 33.7708 235.963 33.8277 235.709 33.8742C235.45 33.9207 235.233 33.9414 235.048 33.9414C234.425 33.9414 233.991 33.7398 233.753 33.3367C233.516 32.9335 233.394 32.3598 233.394 31.6259V24.1058H236.534V22.3278H233.394V17.4746L233.389 17.4849Z"></path>
<path fill="#1A2A49" d="M248.008 22.9946C247.025 22.4105 245.889 22.1211 244.604 22.1211C243.32 22.1211 242.173 22.4157 241.174 22.9946C240.175 23.5786 239.393 24.3849 238.833 25.4186C238.272 26.4523 237.992 27.6307 237.992 28.9642C237.992 30.2976 238.278 31.4812 238.848 32.5201C239.419 33.5641 240.201 34.3755 241.206 34.9596C242.205 35.5436 243.341 35.8331 244.61 35.8331C245.878 35.8331 247.009 35.5384 247.997 34.9441C248.991 34.3497 249.768 33.5382 250.339 32.5046C250.91 31.4709 251.195 30.2924 251.195 28.959C251.195 27.6255 250.91 26.4471 250.339 25.4134C249.768 24.3797 248.991 23.5734 248.008 22.9894V22.9946ZM248.325 31.5122C247.976 32.241 247.485 32.8043 246.851 33.2075C246.216 33.6106 245.466 33.8122 244.604 33.8122C243.743 33.8122 242.96 33.6106 242.316 33.2075C241.671 32.8043 241.174 32.2358 240.825 31.5122C240.476 30.7835 240.302 29.9358 240.302 28.9642C240.302 27.9925 240.476 27.1242 240.825 26.4058C241.174 25.6873 241.671 25.124 242.316 24.7208C242.96 24.3177 243.722 24.1161 244.604 24.1161C245.487 24.1161 246.216 24.3125 246.851 24.7105C247.485 25.1033 247.976 25.6667 248.325 26.3954C248.674 27.1242 248.848 27.9821 248.848 28.9693C248.848 29.9565 248.674 30.7886 248.325 31.5174V31.5122Z"></path>
<path fill="#1A2A49" d="M260.26 22.121C259.636 22.121 258.996 22.2812 258.346 22.6068C257.696 22.9325 257.125 23.3821 256.639 23.9662C256.523 24.1057 256.417 24.2504 256.322 24.4003V22.3329H253.98V35.6159H256.322V29.3931C256.322 28.6901 256.343 28.1423 256.391 27.734C256.438 27.3308 256.496 27.0001 256.57 26.752C256.755 26.1783 257.02 25.7183 257.368 25.3771C257.717 25.036 258.108 24.7828 258.542 24.6226C258.975 24.4623 259.409 24.3796 259.853 24.3796C260.127 24.3796 260.418 24.4158 260.719 24.4882C261.021 24.5605 261.285 24.6484 261.507 24.7569L262.664 22.7102C262.263 22.4931 261.866 22.3433 261.48 22.2502C261.095 22.1624 260.693 22.1158 260.27 22.1158L260.26 22.121Z"></path>
<path fill="#1A2A49" d="M275.059 26.1317C274.821 25.3772 274.456 24.6949 273.97 24.085C273.484 23.4752 272.86 22.9945 272.094 22.643C271.333 22.2916 270.429 22.1158 269.377 22.1158C268.325 22.1158 267.448 22.3019 266.676 22.6792C265.904 23.0565 265.265 23.5682 264.763 24.2142C264.255 24.8603 263.875 25.6046 263.621 26.4367C263.362 27.274 263.235 28.1475 263.235 29.0623C263.235 29.9771 263.367 30.8454 263.637 31.662C263.901 32.4786 264.298 33.2022 264.821 33.8328C265.344 34.4633 266.005 34.9492 266.803 35.3006C267.601 35.6521 268.537 35.8278 269.599 35.8278C270.35 35.8278 271.037 35.7451 271.65 35.5849C272.263 35.4247 272.85 35.1766 273.399 34.8458C273.949 34.515 274.472 34.086 274.969 33.564L273.341 32.1634C272.828 32.7216 272.273 33.1247 271.687 33.3779C271.1 33.6312 270.408 33.7552 269.62 33.7552C268.389 33.7552 267.416 33.3986 266.697 32.675C265.978 31.9566 265.593 30.9488 265.54 29.6566H275.323C275.36 29.4602 275.381 29.2328 275.392 28.9692C275.402 28.7108 275.408 28.5403 275.408 28.4731C275.408 27.6668 275.286 26.8812 275.048 26.1266L275.059 26.1317ZM265.524 27.9666C265.577 27.2481 265.762 26.5917 266.074 25.9974C266.385 25.403 266.824 24.9275 267.395 24.5709C267.966 24.2091 268.642 24.0333 269.435 24.0333C270.08 24.0333 270.635 24.1367 271.1 24.3435C271.57 24.5502 271.956 24.8293 272.258 25.1807C272.559 25.5322 272.791 25.9198 272.945 26.354C273.098 26.783 273.177 27.2171 273.177 27.6461C273.177 27.7546 273.177 27.8632 273.167 27.9717H265.513L265.524 27.9666Z"></path>
<path fill="#1A2A49" d="M158.462 35.833C159.213 35.833 159.9 35.7503 160.513 35.5901C161.126 35.4299 161.713 35.1818 162.262 34.851C162.812 34.5202 163.335 34.0912 163.832 33.5692L162.204 32.1686C161.692 32.7268 161.137 33.1299 160.55 33.3832C159.963 33.6364 159.271 33.7605 158.483 33.7605C158.388 33.7605 158.298 33.7553 158.208 33.7501V35.8227C158.293 35.8227 158.372 35.833 158.457 35.833H158.462Z"></path>
<path fill="#1A2A49" d="M163.922 26.1317C163.684 25.3772 163.319 24.6949 162.833 24.085C162.347 23.4752 161.723 22.9945 160.957 22.643C160.196 22.2916 159.292 22.1158 158.24 22.1158C158.23 22.1158 158.224 22.1158 158.214 22.1158V24.0333C158.24 24.0333 158.267 24.0333 158.298 24.0333C158.943 24.0333 159.498 24.1367 159.963 24.3435C160.434 24.5502 160.819 24.8293 161.121 25.1807C161.422 25.5322 161.655 25.9198 161.808 26.354C161.961 26.783 162.04 27.2171 162.04 27.6461C162.04 27.7546 162.04 27.8632 162.03 27.9717H158.208V29.667H164.186C164.223 29.4706 164.244 29.2432 164.255 28.9796C164.266 28.7212 164.271 28.5506 164.271 28.4834C164.271 27.6771 164.149 26.8915 163.911 26.1369L163.922 26.1317Z"></path>
<path fill="#1A2A49" d="M158.187 22.1158C157.141 22.1158 156.237 22.2916 155.471 22.643C154.784 22.9583 154.213 23.3873 153.748 23.9196C153.113 23.501 152.04 22.8084 151.85 22.7102C151.063 22.3174 150.185 22.1158 149.234 22.1158C148.283 22.1158 147.373 22.3122 146.575 22.7102C145.777 23.1082 145.143 23.656 144.673 24.3693C144.202 25.0774 143.97 25.8992 143.97 26.8347C143.97 27.7702 144.197 28.5299 144.646 29.2328C144.815 29.4964 145.011 29.7393 145.233 29.9616C144.879 30.1993 144.572 30.4681 144.313 30.7679C143.864 31.2899 143.637 31.8636 143.637 32.4941C143.637 33.2332 143.89 33.8224 144.393 34.2721C144.741 34.5822 145.159 34.8406 145.64 35.0474L143.388 36.6444C143.351 36.7685 143.33 36.9028 143.32 37.0476C143.309 37.1923 143.304 37.306 143.304 37.399C143.304 38.6395 143.875 39.6111 145.011 40.3089C146.147 41.0118 147.691 41.3581 149.641 41.3581C151.443 41.3581 152.854 41.0325 153.885 40.3761C154.916 39.7197 155.428 38.779 155.428 37.5592C155.428 36.8563 155.265 36.2878 154.932 35.8485C154.599 35.4092 154.139 35.0577 153.542 34.7993C152.944 34.5409 152.262 34.3393 151.491 34.1946C150.719 34.0498 149.895 33.9155 149.012 33.7914C148.351 33.7036 147.786 33.6002 147.315 33.4813C146.845 33.3624 146.491 33.197 146.242 32.9851C145.994 32.7681 145.872 32.489 145.872 32.1479C145.872 31.7344 145.999 31.3777 146.258 31.0831C146.327 31.0056 146.406 30.9333 146.501 30.8661C146.512 30.8712 146.523 30.8764 146.533 30.8816C147.342 31.2744 148.267 31.4759 149.319 31.4759C150.37 31.4759 151.221 31.2847 151.993 30.9126C152.765 30.5353 153.372 30.0081 153.811 29.3207C154.25 28.6385 154.472 26.9174 154.472 26.9174C154.509 26.7313 154.556 26.5452 154.625 26.3592C154.784 25.9302 155.011 25.5374 155.312 25.1859C155.613 24.8345 155.999 24.5554 156.47 24.3486C156.94 24.1419 157.495 24.0385 158.135 24.0385C158.161 24.0385 158.187 24.0385 158.219 24.0385V22.121C158.219 22.121 158.203 22.121 158.193 22.121L158.187 22.1158ZM147.004 35.4815C147.569 35.6262 148.145 35.7451 148.737 35.833C149.398 35.9208 149.995 36.0139 150.529 36.1017C151.063 36.1896 151.528 36.2981 151.919 36.4273C152.315 36.5514 152.617 36.7271 152.828 36.9545C153.039 37.1768 153.145 37.4714 153.145 37.828C153.145 38.4586 152.812 38.9082 152.151 39.1873C151.491 39.4664 150.656 39.606 149.646 39.606C148.505 39.606 147.553 39.4302 146.782 39.0788C146.01 38.7273 145.624 38.195 145.624 37.4765V37.3163C145.624 37.2646 145.635 37.1974 145.65 37.1303L147.004 35.4867V35.4815ZM151.396 28.7883C150.888 29.3362 150.18 29.6101 149.26 29.6101C148.341 29.6101 147.617 29.3362 147.083 28.7883C146.549 28.2405 146.285 27.5634 146.285 26.752C146.285 25.9405 146.56 25.2738 147.109 24.7466C147.659 24.2194 148.378 23.9507 149.26 23.9507C150.143 23.9507 150.82 24.2091 151.353 24.7311C151.887 25.2531 152.151 25.9353 152.151 26.7778C152.151 27.5686 151.898 28.2353 151.396 28.7832V28.7883Z"></path>
<path fill="#1A2A49" d="M20.1426 8.25927C21.0563 8.25927 21.797 7.53498 21.797 6.64154C21.797 5.74809 21.0563 5.0238 20.1426 5.0238C19.229 5.0238 18.4883 5.74809 18.4883 6.64154C18.4883 7.53498 19.229 8.25927 20.1426 8.25927Z"></path>
<path fill="#1A2A49" d="M11.7705 36.9598C12.6842 36.9598 13.4249 36.2355 13.4249 35.3421C13.4249 34.4486 12.6842 33.7244 11.7705 33.7244C10.8569 33.7244 10.1162 34.4486 10.1162 35.3421C10.1162 36.2355 10.8569 36.9598 11.7705 36.9598Z"></path>
<path fill="#1A2A49" d="M15.8037 15.0403C17.0677 15.0403 18.0923 14.0384 18.0923 12.8024C18.0923 11.5664 17.0677 10.5645 15.8037 10.5645C14.5398 10.5645 13.5151 11.5664 13.5151 12.8024C13.5151 14.0384 14.5398 15.0403 15.8037 15.0403Z"></path>
<path fill="#1A2A49" d="M10.4282 29.8996C11.6922 29.8996 12.7168 28.8976 12.7168 27.6617C12.7168 26.4257 11.6922 25.4237 10.4282 25.4237C9.16428 25.4237 8.13965 26.4257 8.13965 27.6617C8.13965 28.8976 9.16428 29.8996 10.4282 29.8996Z"></path>
<path fill="#1A2A49" d="M11.7709 22.1987C13.2538 22.1987 14.4559 21.0232 14.4559 19.5731C14.4559 18.123 13.2538 16.9475 11.7709 16.9475C10.288 16.9475 9.08594 18.123 9.08594 19.5731C9.08594 21.0232 10.288 22.1987 11.7709 22.1987Z"></path>
<path fill="#1A2A49" d="M16.7603 46.9763C17.674 46.9763 18.4146 46.252 18.4146 45.3586C18.4146 44.4651 17.674 43.7408 16.7603 43.7408C15.8466 43.7408 15.106 44.4651 15.106 45.3586C15.106 46.252 15.8466 46.9763 16.7603 46.9763Z"></path>
<path fill="#1A2A49" d="M25.1324 18.2757C26.046 18.2757 26.7867 17.5515 26.7867 16.658C26.7867 15.7646 26.046 15.0403 25.1324 15.0403C24.2187 15.0403 23.478 15.7646 23.478 16.658C23.478 17.5515 24.2187 18.2757 25.1324 18.2757Z"></path>
<path fill="#1A2A49" d="M21.0996 41.4305C22.3636 41.4305 23.3882 40.4285 23.3882 39.1925C23.3882 37.9566 22.3636 36.9546 21.0996 36.9546C19.8357 36.9546 18.811 37.9566 18.811 39.1925C18.811 40.4285 19.8357 41.4305 21.0996 41.4305Z"></path>
<path fill="#1A2A49" d="M26.4751 26.5764C27.7391 26.5764 28.7637 25.5744 28.7637 24.3384C28.7637 23.1024 27.7391 22.1005 26.4751 22.1005C25.2112 22.1005 24.1865 23.1024 24.1865 24.3384C24.1865 25.5744 25.2112 26.5764 26.4751 26.5764Z"></path>
<path fill="#1A2A49" d="M25.1323 35.0474C26.6151 35.0474 27.8173 33.8719 27.8173 32.4218C27.8173 30.9718 26.6151 29.7963 25.1323 29.7963C23.6494 29.7963 22.4473 30.9718 22.4473 32.4218C22.4473 33.8719 23.6494 35.0474 25.1323 35.0474Z"></path>
<path fill="#1A2A49" d="M25.0478 17.6865C18.367 17.1593 15.1429 13.6344 15.0107 13.4846L16.6017 12.1252L15.8036 12.8075L16.5964 12.1252C16.6228 12.1563 19.4399 15.1746 25.2169 15.6346L25.0478 17.6969V17.6865Z"></path>
<path fill="#1A2A49" d="M26.3847 25.3669C17.9228 24.6381 11.4693 20.6119 11.1997 20.4413L12.3466 18.7047C12.4101 18.7461 18.6469 22.6276 26.5697 23.3047L26.3847 25.3617V25.3669Z"></path>
<path fill="#1A2A49" d="M25.1218 33.4555C17.3311 33.4555 10.1323 28.716 9.83105 28.5145L11.0203 26.8037C11.089 26.8502 17.9917 31.3881 25.1218 31.3881H25.1271V33.4555H25.1218Z"></path>
<path fill="#1A2A49" d="M20.9358 40.2159C13.8057 39.1047 11.089 36.1483 10.978 36.0243L12.5689 34.665L11.7761 35.3472L12.5637 34.6598C12.5637 34.6598 14.9738 37.1975 21.2687 38.1795L20.9358 40.2211V40.2159Z"></path>
<path fill="#1A2A49" d="M277.596 22.333C277.268 22.333 276.956 22.2865 276.66 22.1883C276.364 22.0901 276.095 21.9557 275.846 21.7748C275.598 21.5939 275.386 21.3872 275.207 21.1494C275.027 20.9117 274.884 20.6429 274.784 20.3535C274.683 20.064 274.636 19.7591 274.636 19.4387C274.636 19.1182 274.683 18.8133 274.784 18.5238C274.884 18.2344 275.022 17.9708 275.207 17.7279C275.392 17.485 275.603 17.2782 275.846 17.1025C276.089 16.9268 276.364 16.7872 276.66 16.689C276.956 16.5908 277.268 16.5443 277.596 16.5443C277.923 16.5443 278.235 16.5908 278.531 16.689C278.827 16.7872 279.097 16.9216 279.345 17.1025C279.593 17.2834 279.805 17.4901 279.985 17.7279C280.164 17.9656 280.307 18.2344 280.402 18.5238C280.497 18.8133 280.55 19.1182 280.55 19.4387C280.55 19.7591 280.503 20.064 280.402 20.3535C280.302 20.6429 280.164 20.9065 279.985 21.1494C279.805 21.3923 279.588 21.5991 279.345 21.7748C279.102 21.9505 278.827 22.0901 278.531 22.1883C278.235 22.2865 277.923 22.333 277.596 22.333ZM277.596 21.9867C277.881 21.9867 278.156 21.9454 278.415 21.8575C278.674 21.7696 278.912 21.6508 279.128 21.4957C279.345 21.3407 279.53 21.1546 279.694 20.9427C279.858 20.7308 279.974 20.4982 280.064 20.2449C280.154 19.9917 280.196 19.7229 280.196 19.4438C280.196 19.1647 280.154 18.896 280.064 18.6375C279.974 18.3791 279.852 18.1517 279.694 17.9398C279.535 17.7279 279.345 17.547 279.128 17.3868C278.912 17.2266 278.674 17.1077 278.415 17.025C278.156 16.9423 277.881 16.8958 277.596 16.8958C277.31 16.8958 277.035 16.9371 276.771 17.025C276.507 17.1128 276.274 17.2317 276.058 17.3868C275.841 17.5418 275.656 17.7279 275.492 17.9398C275.328 18.1517 275.207 18.3843 275.122 18.6375C275.037 18.8908 274.99 19.1596 274.99 19.4438C274.99 19.7281 275.032 19.9917 275.122 20.2449C275.212 20.4982 275.333 20.7308 275.492 20.9427C275.651 21.1546 275.841 21.3407 276.058 21.4957C276.274 21.6508 276.512 21.7696 276.771 21.8575C277.03 21.9454 277.305 21.9867 277.596 21.9867ZM276.554 20.984V17.9036H277.622C277.87 17.9036 278.071 17.945 278.23 18.0277C278.388 18.1104 278.505 18.2241 278.579 18.3636C278.653 18.5032 278.695 18.6686 278.695 18.8495C278.695 19.0303 278.658 19.1906 278.584 19.3301C278.51 19.4697 278.394 19.5782 278.235 19.6609C278.077 19.7436 277.876 19.7798 277.633 19.7798H276.776V19.4438H277.622C277.791 19.4438 277.929 19.418 278.029 19.3715C278.129 19.3249 278.209 19.2526 278.251 19.1647C278.293 19.0769 278.32 18.9683 278.32 18.8495C278.32 18.7306 278.299 18.6169 278.251 18.5238C278.203 18.4308 278.129 18.3584 278.024 18.3068C277.918 18.2551 277.786 18.2292 277.611 18.2292H276.94V20.9789H276.56L276.554 20.984ZM278.367 20.984L277.606 19.5989H278.04L278.811 20.984H278.367Z"></path>
</svg>
