<svg xmlns="http://www.w3.org/2000/svg" xmlns:xlink="http://www.w3.org/1999/xlink" width="583" zoomAndPan="magnify" viewBox="0 0 437.25 191.999996" height="256" preserveAspectRatio="xMidYMid meet" version="1.0"><defs><g/></defs><g fill="#424141" fill-opacity="1"><g transform="translate(34.431806, 124.076836)"><g><path d="M 30.46875 -59.578125 C 35.375 -59.578125 39.394531 -58.03125 42.53125 -54.9375 C 45.664062 -51.84375 47.5 -47.425781 48.03125 -41.6875 L 40.546875 -39.1875 C 40.097656 -43.1875 38.867188 -46.242188 36.859375 -48.359375 C 34.859375 -50.472656 32.3125 -51.53125 29.21875 -51.53125 C 24.613281 -51.53125 20.96875 -49.753906 18.28125 -46.203125 C 15.601562 -42.660156 14.265625 -37.753906 14.265625 -31.484375 L 14.265625 0 L 5.65625 0 L 5.65625 -57.203125 L 13.03125 -57.203125 L 13.8125 -48.25 L 13.9375 -48.25 C 15.519531 -51.726562 17.765625 -54.484375 20.671875 -56.515625 C 23.578125 -58.554688 26.84375 -59.578125 30.46875 -59.578125 Z M 30.46875 -59.578125 "/></g></g></g><g fill="#424141" fill-opacity="1"><g transform="translate(83.584428, 124.076836)"><g><path d="M 35 2.265625 C 28.957031 2.265625 23.535156 0.90625 18.734375 -1.8125 C 13.941406 -4.53125 10.1875 -8.265625 7.46875 -13.015625 C 4.75 -17.773438 3.390625 -23.175781 3.390625 -29.21875 C 3.390625 -35.113281 4.632812 -40.328125 7.125 -44.859375 C 9.625 -49.390625 13.082031 -52.957031 17.5 -55.5625 C 21.914062 -58.164062 26.957031 -59.46875 32.625 -59.46875 C 38.207031 -59.46875 43.078125 -58.164062 47.234375 -55.5625 C 51.390625 -52.957031 54.632812 -49.367188 56.96875 -44.796875 C 59.3125 -40.222656 60.519531 -34.992188 60.59375 -29.109375 C 60.59375 -28.578125 60.59375 -28.03125 60.59375 -27.46875 C 60.59375 -26.90625 60.554688 -26.320312 60.484375 -25.71875 L 12.34375 -25.71875 C 12.800781 -21.789062 14.046875 -18.296875 16.078125 -15.234375 C 18.117188 -12.171875 20.78125 -9.789062 24.0625 -8.09375 C 27.351562 -6.394531 31.035156 -5.546875 35.109375 -5.546875 C 39.566406 -5.546875 43.566406 -6.582031 47.109375 -8.65625 C 50.660156 -10.738281 53.234375 -13.328125 54.828125 -16.421875 L 62.296875 -13.359375 C 61.085938 -10.335938 59.140625 -7.640625 56.453125 -5.265625 C 53.773438 -2.890625 50.601562 -1.039062 46.9375 0.28125 C 43.28125 1.601562 39.300781 2.265625 35 2.265625 Z M 12.453125 -33.296875 L 51.421875 -33.296875 C 50.890625 -39.109375 48.90625 -43.597656 45.46875 -46.765625 C 42.039062 -49.941406 37.71875 -51.53125 32.5 -51.53125 C 27.21875 -51.53125 22.765625 -49.847656 19.140625 -46.484375 C 15.515625 -43.128906 13.285156 -38.734375 12.453125 -33.296875 Z M 12.453125 -33.296875 "/></g></g></g><g fill="#424141" fill-opacity="1"><g transform="translate(146.101083, 124.076836)"><g><path d="M 12.578125 0 L 12.453125 -50.0625 L -0.109375 -50.0625 L -0.109375 -57.203125 L 12.453125 -57.203125 L 12.453125 -67.171875 C 12.453125 -72.453125 14.171875 -76.734375 17.609375 -80.015625 C 21.046875 -83.304688 25.519531 -84.953125 31.03125 -84.953125 C 36.09375 -84.953125 40.378906 -83.570312 43.890625 -80.8125 C 47.398438 -78.0625 49.644531 -74.570312 50.625 -70.34375 L 43.046875 -67.171875 C 42.441406 -70.109375 41.0625 -72.554688 38.90625 -74.515625 C 36.75 -76.484375 34.238281 -77.46875 31.375 -77.46875 C 28.351562 -77.46875 25.878906 -76.390625 23.953125 -74.234375 C 22.023438 -72.085938 21.0625 -69.238281 21.0625 -65.6875 L 21.0625 -57.203125 L 45.765625 -57.203125 L 45.765625 -50.0625 L 21.0625 -50.0625 L 21.1875 0 Z M 12.578125 0 "/></g></g></g><g fill="#424141" fill-opacity="1"><g transform="translate(196.726049, 124.076836)"><g><path d="M 5.65625 0 L 5.65625 -83.25 L 14.265625 -83.25 L 14.265625 0 Z M 5.65625 0 "/></g></g></g><g fill="#424141" fill-opacity="1"><g transform="translate(216.658926, 124.076836)"><g><path d="M 33.859375 2.265625 C 27.742188 2.265625 22.398438 0.984375 17.828125 -1.578125 C 13.265625 -4.148438 9.71875 -7.738281 7.1875 -12.34375 C 4.65625 -16.945312 3.390625 -22.347656 3.390625 -28.546875 C 3.390625 -34.804688 4.65625 -40.238281 7.1875 -44.84375 C 9.71875 -49.457031 13.265625 -53.046875 17.828125 -55.609375 C 22.398438 -58.179688 27.742188 -59.46875 33.859375 -59.46875 C 40.054688 -59.46875 45.4375 -58.179688 50 -55.609375 C 54.570312 -53.046875 58.125 -49.457031 60.65625 -44.84375 C 63.1875 -40.238281 64.453125 -34.804688 64.453125 -28.546875 C 64.453125 -22.347656 63.1875 -16.945312 60.65625 -12.34375 C 58.125 -7.738281 54.570312 -4.148438 50 -1.578125 C 45.4375 0.984375 40.054688 2.265625 33.859375 2.265625 Z M 33.859375 -5.546875 C 40.503906 -5.546875 45.8125 -7.640625 49.78125 -11.828125 C 53.75 -16.023438 55.734375 -21.597656 55.734375 -28.546875 C 55.734375 -35.492188 53.75 -41.0625 49.78125 -45.25 C 45.8125 -49.4375 40.503906 -51.53125 33.859375 -51.53125 C 27.222656 -51.53125 21.921875 -49.4375 17.953125 -45.25 C 13.984375 -41.0625 12 -35.492188 12 -28.546875 C 12 -21.597656 13.984375 -16.023438 17.953125 -11.828125 C 21.921875 -7.640625 27.222656 -5.546875 33.859375 -5.546875 Z M 33.859375 -5.546875 "/></g></g></g><g fill="#424141" fill-opacity="1"><g transform="translate(284.498653, 124.076836)"><g><path d="M 30.46875 -59.578125 C 35.375 -59.578125 39.394531 -58.03125 42.53125 -54.9375 C 45.664062 -51.84375 47.5 -47.425781 48.03125 -41.6875 L 40.546875 -39.1875 C 40.097656 -43.1875 38.867188 -46.242188 36.859375 -48.359375 C 34.859375 -50.472656 32.3125 -51.53125 29.21875 -51.53125 C 24.613281 -51.53125 20.96875 -49.753906 18.28125 -46.203125 C 15.601562 -42.660156 14.265625 -37.753906 14.265625 -31.484375 L 14.265625 0 L 5.65625 0 L 5.65625 -57.203125 L 13.03125 -57.203125 L 13.8125 -48.25 L 13.9375 -48.25 C 15.519531 -51.726562 17.765625 -54.484375 20.671875 -56.515625 C 23.578125 -58.554688 26.84375 -59.578125 30.46875 -59.578125 Z M 30.46875 -59.578125 "/></g></g></g><g fill="#424141" fill-opacity="1"><g transform="translate(334.330793, 124.076836)"><g><path d="M 17.5625 -68.40625 C 15.664062 -68.40625 14.132812 -69.007812 12.96875 -70.21875 C 11.800781 -71.425781 11.21875 -72.9375 11.21875 -74.75 C 11.21875 -76.5625 11.800781 -78.035156 12.96875 -79.171875 C 14.132812 -80.304688 15.664062 -80.875 17.5625 -80.875 C 19.445312 -80.875 20.992188 -80.304688 22.203125 -79.171875 C 23.410156 -78.035156 24.015625 -76.5625 24.015625 -74.75 C 24.015625 -72.9375 23.410156 -71.425781 22.203125 -70.21875 C 20.992188 -69.007812 19.445312 -68.40625 17.5625 -68.40625 Z M 43.265625 -68.40625 C 41.378906 -68.40625 39.867188 -69.007812 38.734375 -70.21875 C 37.597656 -71.425781 37.03125 -72.9375 37.03125 -74.75 C 37.03125 -76.5625 37.597656 -78.035156 38.734375 -79.171875 C 39.867188 -80.304688 41.378906 -80.875 43.265625 -80.875 C 45.148438 -80.875 46.675781 -80.304688 47.84375 -79.171875 C 49.019531 -78.035156 49.609375 -76.5625 49.609375 -74.75 C 49.609375 -72.9375 49.019531 -71.425781 47.84375 -70.21875 C 46.675781 -69.007812 45.148438 -68.40625 43.265625 -68.40625 Z M 24.359375 2.265625 C 20.046875 2.265625 16.226562 1.546875 12.90625 0.109375 C 9.582031 -1.316406 6.976562 -3.332031 5.09375 -5.9375 C 3.207031 -8.550781 2.265625 -11.554688 2.265625 -14.953125 C 2.265625 -19.554688 4.242188 -23.554688 8.203125 -26.953125 C 12.171875 -30.347656 18.800781 -32.613281 28.09375 -33.75 L 42.25 -35.453125 C 43.6875 -35.597656 44.816406 -36.066406 45.640625 -36.859375 C 46.472656 -37.660156 46.890625 -38.664062 46.890625 -39.875 C 46.890625 -43.414062 45.34375 -46.265625 42.25 -48.421875 C 39.15625 -50.578125 35.113281 -51.65625 30.125 -51.65625 C 26.582031 -51.65625 23.410156 -50.992188 20.609375 -49.671875 C 17.816406 -48.347656 15.609375 -46.628906 13.984375 -44.515625 C 12.359375 -42.398438 11.472656 -40.207031 11.328125 -37.9375 L 3.515625 -41.234375 C 3.890625 -44.398438 5.265625 -47.359375 7.640625 -50.109375 C 10.023438 -52.867188 13.195312 -55.117188 17.15625 -56.859375 C 21.125 -58.597656 25.5625 -59.46875 30.46875 -59.46875 C 35.375 -59.46875 39.695312 -58.617188 43.4375 -56.921875 C 47.175781 -55.222656 50.101562 -52.804688 52.21875 -49.671875 C 54.332031 -46.535156 55.390625 -42.816406 55.390625 -38.515625 L 55.390625 -9.515625 C 55.390625 -8.378906 55.671875 -7.453125 56.234375 -6.734375 C 56.796875 -6.015625 57.53125 -5.65625 58.4375 -5.65625 C 60.175781 -5.65625 61.726562 -6.789062 63.09375 -9.0625 L 67.734375 -3.625 C 66.523438 -1.882812 64.84375 -0.46875 62.6875 0.625 C 60.539062 1.71875 58.375 2.265625 56.1875 2.265625 C 53.382812 2.265625 51.148438 1.378906 49.484375 -0.390625 C 47.828125 -2.171875 46.925781 -4.34375 46.78125 -6.90625 L 46.671875 -9.515625 L 46.546875 -9.515625 C 44.515625 -5.890625 41.585938 -3.019531 37.765625 -0.90625 C 33.953125 1.207031 29.484375 2.265625 24.359375 2.265625 Z M 25.828125 -5.546875 C 29.828125 -5.546875 33.394531 -6.359375 36.53125 -7.984375 C 39.664062 -9.609375 42.140625 -11.835938 43.953125 -14.671875 C 45.765625 -17.503906 46.671875 -20.769531 46.671875 -24.46875 L 46.671875 -28.546875 L 29 -26.390625 C 22.125 -25.554688 17.382812 -24.117188 14.78125 -22.078125 C 12.175781 -20.046875 10.875 -17.707031 10.875 -15.0625 C 10.875 -12.195312 12.269531 -9.894531 15.0625 -8.15625 C 17.851562 -6.414062 21.441406 -5.546875 25.828125 -5.546875 Z M 25.828125 -5.546875 "/></g></g></g></svg>