<svg xmlns="http://www.w3.org/2000/svg" xmlns:xlink="http://www.w3.org/1999/xlink" width="2380" zoomAndPan="magnify" viewBox="0 0 1784.88 1784.99993" height="2380" preserveAspectRatio="xMidYMid meet" version="1.0"><defs><g/><clipPath id="3e915151a3"><path d="M 113 0.0585938 L 1689 0.0585938 L 1689 1784.9375 L 113 1784.9375 Z M 113 0.0585938 " clip-rule="nonzero"/></clipPath><clipPath id="dd854035ba"><path d="M 0.992188 0.0585938 L 1575.765625 0.0585938 L 1575.765625 1784.9375 L 0.992188 1784.9375 Z M 0.992188 0.0585938 " clip-rule="nonzero"/></clipPath><clipPath id="d62accf878"><rect x="0" width="1576" y="0" height="1785"/></clipPath><clipPath id="95ce3948b3"><rect x="0" width="1576" y="0" height="1785"/></clipPath></defs><g clip-path="url(#3e915151a3)"><g transform="matrix(1, 0, 0, 1, 113, -0.000000000000097387)"><g clip-path="url(#95ce3948b3)"><g clip-path="url(#dd854035ba)"><g transform="matrix(1, 0, 0, 1, 0, -0.000000000000097387)"><g clip-path="url(#d62accf878)"><g fill="#d2f546" fill-opacity="1"><g transform="translate(5.730085, 1663.006696)"><g><path d="M 829.234375 -749.609375 L 1262.625 -1456 C 1209.539062 -1410.5 1167.640625 -1379.785156 1136.921875 -1363.859375 C 1106.210938 -1347.941406 1076.832031 -1339.984375 1048.78125 -1339.984375 C 1016.925781 -1339.984375 990.191406 -1347.753906 968.578125 -1363.296875 C 946.972656 -1378.847656 927.828125 -1404.441406 911.140625 -1440.078125 L 829.234375 -1380.9375 Z M 955.5 -28.4375 C 1013.894531 -48.15625 1061.671875 -76.78125 1098.828125 -114.3125 C 1135.984375 -151.851562 1163.285156 -199.0625 1180.734375 -255.9375 C 1160.253906 -265.789062 1140.914062 -272.992188 1122.71875 -277.546875 C 1104.519531 -282.097656 1085.941406 -284.375 1066.984375 -284.375 C 1045.742188 -284.375 1026.210938 -282.285156 1008.390625 -278.109375 C 990.578125 -273.941406 972.945312 -267.3125 955.5 -258.21875 Z M 955.5 -298.03125 C 976.738281 -304.09375 997.210938 -308.828125 1016.921875 -312.234375 C 1036.640625 -315.648438 1055.597656 -317.359375 1073.796875 -317.359375 C 1106.410156 -317.359375 1140.914062 -310.535156 1177.3125 -296.890625 C 1182.625 -295.367188 1186.039062 -294.226562 1187.5625 -293.46875 C 1194.382812 -320.769531 1199.3125 -347.3125 1202.34375 -373.09375 C 1205.375 -398.882812 1206.890625 -423.535156 1206.890625 -447.046875 C 1206.890625 -466.003906 1205.941406 -486.285156 1204.046875 -507.890625 C 1202.148438 -529.503906 1199.304688 -552.445312 1195.515625 -576.71875 C 1178.078125 -564.582031 1159.304688 -555.476562 1139.203125 -549.40625 C 1119.109375 -543.34375 1097.304688 -540.3125 1073.796875 -540.3125 C 1050.296875 -540.3125 1029.441406 -542.394531 1011.234375 -546.5625 C 993.035156 -550.738281 974.457031 -557.378906 955.5 -566.484375 Z M 955.5 -598.328125 C 977.488281 -589.222656 998.53125 -582.394531 1018.625 -577.84375 C 1038.726562 -573.300781 1057.878906 -571.03125 1076.078125 -571.03125 C 1097.304688 -571.03125 1117.398438 -574.0625 1136.359375 -580.125 C 1155.328125 -586.195312 1173.53125 -595.675781 1190.96875 -608.5625 C 1175.039062 -681.363281 1146.601562 -739.945312 1105.65625 -784.3125 C 1064.707031 -828.675781 1014.65625 -855.40625 955.5 -864.5 Z M 566.484375 -184.28125 C 580.890625 -207.03125 591.503906 -229.398438 598.328125 -251.390625 C 605.148438 -273.378906 608.5625 -299.921875 608.5625 -331.015625 L 608.5625 -1246.703125 L 510.734375 -1193.25 L 510.734375 -1231.921875 C 606.285156 -1276.660156 703.351562 -1333.15625 801.9375 -1401.40625 C 900.519531 -1469.65625 1001.378906 -1550.796875 1104.515625 -1644.828125 C 1119.679688 -1608.429688 1138.257812 -1581.128906 1160.25 -1562.921875 C 1182.25 -1544.722656 1206.894531 -1535.625 1234.1875 -1535.625 C 1248.601562 -1535.625 1265.097656 -1540.742188 1283.671875 -1550.984375 C 1302.253906 -1561.222656 1324.054688 -1576.957031 1349.078125 -1598.1875 L 1374.109375 -1582.265625 L 964.609375 -906.59375 C 969.148438 -906.59375 975.78125 -906.96875 984.5 -907.71875 C 993.226562 -908.476562 999.867188 -908.859375 1004.421875 -908.859375 C 1137.890625 -908.859375 1247.28125 -868.859375 1332.59375 -788.859375 C 1417.90625 -708.859375 1460.5625 -608.191406 1460.5625 -486.859375 C 1460.5625 -342.015625 1395.148438 -215.367188 1264.328125 -106.921875 C 1133.515625 1.515625 978.25 55.734375 798.53125 55.734375 C 593.78125 55.734375 419.171875 -18.203125 274.703125 -166.078125 C 130.242188 -313.953125 58.015625 -494.054688 58.015625 -706.390625 C 58.015625 -881.566406 114.320312 -1051.8125 226.9375 -1217.125 C 339.550781 -1382.445312 481.925781 -1504.160156 654.0625 -1582.265625 C 537.28125 -1476.097656 450.257812 -1353.054688 393 -1213.140625 C 335.75 -1073.234375 307.125 -911.898438 307.125 -729.140625 C 307.125 -509.984375 353.003906 -332.910156 444.765625 -197.921875 C 536.523438 -62.941406 654.445312 4.546875 798.53125 4.546875 C 819 4.546875 839.472656 2.84375 859.953125 -0.5625 C 880.429688 -3.976562 902.046875 -9.476562 924.796875 -17.0625 L 924.796875 -847.4375 L 829.234375 -691.609375 L 829.234375 -613.109375 C 829.234375 -469.785156 809.328125 -370.632812 769.515625 -315.65625 C 729.703125 -260.675781 662.023438 -216.882812 566.484375 -184.28125 Z M 566.484375 -184.28125 "/></g></g></g></g></g></g></g></g></g></svg>