<svg xmlns="http://www.w3.org/2000/svg" xmlns:xlink="http://www.w3.org/1999/xlink" width="2380" zoomAndPan="magnify" viewBox="0 0 1784.88 1784.99993" height="2380" preserveAspectRatio="xMidYMid meet" version="1.0"><defs><g/><clipPath id="1dd2a5d0be"><path d="M 286 0.0585938 L 1520 0.0585938 L 1520 1784.9375 L 286 1784.9375 Z M 286 0.0585938 " clip-rule="nonzero"/></clipPath><clipPath id="71c01e1a37"><path d="M 0.78125 0.0585938 L 1233.578125 0.0585938 L 1233.578125 1784.9375 L 0.78125 1784.9375 Z M 0.78125 0.0585938 " clip-rule="nonzero"/></clipPath><clipPath id="1008190e96"><rect x="0" width="1234" y="0" height="1785"/></clipPath><clipPath id="ccafe58302"><rect x="0" width="1234" y="0" height="1785"/></clipPath></defs><g clip-path="url(#1dd2a5d0be)"><g transform="matrix(1, 0, 0, 1, 286, -0.000000000000097387)"><g clip-path="url(#ccafe58302)"><g clip-path="url(#71c01e1a37)"><g transform="matrix(1, 0, 0, 1, 0, -0.000000000000097387)"><g clip-path="url(#1008190e96)"><g fill="#ffffff" fill-opacity="1"><g transform="translate(0.826027, 1495.655382)"><g><path d="M 649.125 -586.796875 L 988.390625 -1139.765625 C 946.835938 -1104.148438 914.039062 -1080.109375 890 -1067.640625 C 865.957031 -1055.171875 842.953125 -1048.9375 820.984375 -1048.9375 C 796.054688 -1048.9375 775.128906 -1055.019531 758.203125 -1067.1875 C 741.285156 -1079.363281 726.300781 -1099.398438 713.25 -1127.296875 L 649.125 -1081 Z M 747.96875 -22.265625 C 793.675781 -37.691406 831.070312 -60.097656 860.15625 -89.484375 C 889.25 -118.867188 910.625 -155.820312 924.28125 -200.34375 C 908.25 -208.0625 893.109375 -213.703125 878.859375 -217.265625 C 864.617188 -220.828125 850.078125 -222.609375 835.234375 -222.609375 C 818.609375 -222.609375 803.320312 -220.972656 789.375 -217.703125 C 775.425781 -214.441406 761.625 -209.25 747.96875 -202.125 Z M 747.96875 -233.296875 C 764.59375 -238.046875 780.617188 -241.753906 796.046875 -244.421875 C 811.484375 -247.097656 826.328125 -248.4375 840.578125 -248.4375 C 866.097656 -248.4375 893.109375 -243.09375 921.609375 -232.40625 C 925.765625 -231.21875 928.4375 -230.328125 929.625 -229.734375 C 934.96875 -251.109375 938.828125 -271.882812 941.203125 -292.0625 C 943.578125 -312.25 944.765625 -331.539062 944.765625 -349.9375 C 944.765625 -364.78125 944.019531 -380.660156 942.53125 -397.578125 C 941.050781 -414.492188 938.828125 -432.453125 935.859375 -451.453125 C 922.203125 -441.953125 907.507812 -434.828125 891.78125 -430.078125 C 876.050781 -425.328125 858.984375 -422.953125 840.578125 -422.953125 C 822.171875 -422.953125 805.84375 -424.582031 791.59375 -427.84375 C 777.351562 -431.113281 762.8125 -436.3125 747.96875 -443.4375 Z M 747.96875 -468.375 C 765.1875 -461.25 781.660156 -455.90625 797.390625 -452.34375 C 813.117188 -448.78125 828.109375 -447 842.359375 -447 C 858.984375 -447 874.710938 -449.375 889.546875 -454.125 C 904.390625 -458.875 918.640625 -466.296875 932.296875 -476.390625 C 919.828125 -533.378906 897.5625 -579.234375 865.5 -613.953125 C 833.445312 -648.679688 794.269531 -669.609375 747.96875 -676.734375 Z M 443.4375 -144.25 C 454.71875 -162.0625 463.03125 -179.570312 468.375 -196.78125 C 473.71875 -214 476.390625 -234.78125 476.390625 -259.125 L 476.390625 -975.921875 L 399.8125 -934.078125 L 399.8125 -964.34375 C 474.601562 -999.375 550.582031 -1043.601562 627.75 -1097.03125 C 704.925781 -1150.457031 783.882812 -1213.972656 864.625 -1287.578125 C 876.488281 -1259.085938 891.03125 -1237.71875 908.25 -1223.46875 C 925.46875 -1209.21875 944.757812 -1202.09375 966.125 -1202.09375 C 977.40625 -1202.09375 990.316406 -1206.097656 1004.859375 -1214.109375 C 1019.398438 -1222.128906 1036.46875 -1234.453125 1056.0625 -1251.078125 L 1075.65625 -1238.609375 L 755.09375 -709.6875 C 758.65625 -709.6875 763.847656 -709.984375 770.671875 -710.578125 C 777.503906 -711.171875 782.703125 -711.46875 786.265625 -711.46875 C 890.742188 -711.46875 976.375 -680.148438 1043.15625 -617.515625 C 1109.9375 -554.890625 1143.328125 -476.085938 1143.328125 -381.109375 C 1143.328125 -267.722656 1092.125 -168.585938 989.71875 -83.703125 C 887.320312 1.179688 765.78125 43.625 625.09375 43.625 C 464.8125 43.625 328.125 -14.25 215.03125 -130 C 101.945312 -245.757812 45.40625 -386.75 45.40625 -552.96875 C 45.40625 -690.09375 89.484375 -823.359375 177.640625 -952.765625 C 265.796875 -1082.179688 377.25 -1177.460938 512 -1238.609375 C 420.582031 -1155.492188 352.460938 -1059.175781 307.640625 -949.65625 C 262.828125 -840.132812 240.421875 -713.835938 240.421875 -570.765625 C 240.421875 -399.210938 276.332031 -260.601562 348.15625 -154.9375 C 419.988281 -49.269531 512.300781 3.5625 625.09375 3.5625 C 641.113281 3.5625 657.140625 2.226562 673.171875 -0.4375 C 689.203125 -3.113281 706.117188 -7.421875 723.921875 -13.359375 L 723.921875 -663.375 L 649.125 -541.390625 L 649.125 -479.953125 C 649.125 -367.753906 633.539062 -290.132812 602.375 -247.09375 C 571.21875 -204.0625 518.238281 -169.78125 443.4375 -144.25 Z M 443.4375 -144.25 "/></g></g></g></g></g></g></g></g></g></svg>