<svg xmlns="http://www.w3.org/2000/svg" xmlns:xlink="http://www.w3.org/1999/xlink" width="2380" zoomAndPan="magnify" viewBox="0 0 1784.88 1784.99993" height="2380" preserveAspectRatio="xMidYMid meet" version="1.0"><defs><g/><clipPath id="eb1858c7c7"><path d="M 304 0.0585938 L 1494 0.0585938 L 1494 1784.9375 L 304 1784.9375 Z M 304 0.0585938 " clip-rule="nonzero"/></clipPath><clipPath id="4bab675841"><path d="M 0.539062 0.0585938 L 1189.898438 0.0585938 L 1189.898438 1784.9375 L 0.539062 1784.9375 Z M 0.539062 0.0585938 " clip-rule="nonzero"/></clipPath><clipPath id="737e64a64b"><rect x="0" width="1190" y="0" height="1785"/></clipPath><clipPath id="76fbf65b73"><rect x="0" width="1190" y="0" height="1785"/></clipPath></defs><g clip-path="url(#eb1858c7c7)"><g transform="matrix(1, 0, 0, 1, 304, -0.000000000000097387)"><g clip-path="url(#76fbf65b73)"><g clip-path="url(#4bab675841)"><g transform="matrix(1, 0, 0, 1, 0, -0.000000000000097387)"><g clip-path="url(#737e64a64b)"><g fill="#000000" fill-opacity="1"><g transform="translate(4.104076, 1474.416435)"><g><path d="M 626.265625 -566.140625 L 953.578125 -1099.625 C 913.492188 -1065.257812 881.851562 -1042.0625 858.65625 -1030.03125 C 835.457031 -1018.007812 813.265625 -1012 792.078125 -1012 C 768.023438 -1012 747.835938 -1017.867188 731.515625 -1029.609375 C 715.191406 -1041.347656 700.726562 -1060.679688 688.125 -1087.609375 L 626.265625 -1042.921875 Z M 721.625 -21.484375 C 765.726562 -36.367188 801.8125 -57.984375 829.875 -86.328125 C 857.9375 -114.679688 878.554688 -150.335938 891.734375 -193.296875 C 876.265625 -200.742188 861.65625 -206.179688 847.90625 -209.609375 C 834.164062 -213.046875 820.140625 -214.765625 805.828125 -214.765625 C 789.785156 -214.765625 775.035156 -213.191406 761.578125 -210.046875 C 748.117188 -206.898438 734.800781 -201.890625 721.625 -195.015625 Z M 721.625 -225.078125 C 737.664062 -229.660156 753.128906 -233.238281 768.015625 -235.8125 C 782.910156 -238.394531 797.226562 -239.6875 810.96875 -239.6875 C 835.601562 -239.6875 861.664062 -234.53125 889.15625 -224.21875 C 893.164062 -223.070312 895.742188 -222.210938 896.890625 -221.640625 C 902.035156 -242.265625 905.753906 -262.3125 908.046875 -281.78125 C 910.335938 -301.25 911.484375 -319.863281 911.484375 -337.625 C 911.484375 -351.9375 910.765625 -367.253906 909.328125 -383.578125 C 907.898438 -399.898438 905.753906 -417.226562 902.890625 -435.5625 C 889.722656 -426.394531 875.550781 -419.519531 860.375 -414.9375 C 845.195312 -410.351562 828.726562 -408.0625 810.96875 -408.0625 C 793.21875 -408.0625 777.46875 -409.632812 763.71875 -412.78125 C 749.976562 -415.9375 735.945312 -420.953125 721.625 -427.828125 Z M 721.625 -451.875 C 738.238281 -445 754.132812 -439.84375 769.3125 -436.40625 C 784.488281 -432.976562 798.945312 -431.265625 812.6875 -431.265625 C 828.726562 -431.265625 843.90625 -433.550781 858.21875 -438.125 C 872.539062 -442.707031 886.289062 -449.867188 899.46875 -459.609375 C 887.4375 -514.585938 865.957031 -558.828125 835.03125 -592.328125 C 804.101562 -625.835938 766.300781 -646.03125 721.625 -652.90625 Z M 427.828125 -139.171875 C 438.703125 -156.347656 446.71875 -173.238281 451.875 -189.84375 C 457.03125 -206.457031 459.609375 -226.507812 459.609375 -250 L 459.609375 -941.5625 L 385.734375 -901.1875 L 385.734375 -930.390625 C 457.890625 -964.179688 531.195312 -1006.847656 605.65625 -1058.390625 C 680.113281 -1109.929688 756.285156 -1171.210938 834.171875 -1242.234375 C 845.628906 -1214.742188 859.660156 -1194.125 876.265625 -1180.375 C 892.878906 -1166.632812 911.492188 -1159.765625 932.109375 -1159.765625 C 942.992188 -1159.765625 955.453125 -1163.628906 969.484375 -1171.359375 C 983.515625 -1179.085938 999.976562 -1190.972656 1018.875 -1207.015625 L 1037.78125 -1194.984375 L 728.5 -684.6875 C 731.9375 -684.6875 736.945312 -684.972656 743.53125 -685.546875 C 750.125 -686.117188 755.140625 -686.40625 758.578125 -686.40625 C 859.367188 -686.40625 941.976562 -656.191406 1006.40625 -595.765625 C 1070.84375 -535.347656 1103.0625 -459.320312 1103.0625 -367.6875 C 1103.0625 -258.300781 1053.664062 -162.65625 954.875 -80.75 C 856.082031 1.144531 738.816406 42.09375 603.078125 42.09375 C 448.441406 42.09375 316.570312 -13.742188 207.46875 -125.421875 C 98.363281 -237.109375 43.8125 -373.128906 43.8125 -533.484375 C 43.8125 -665.785156 86.335938 -794.363281 171.390625 -919.21875 C 256.441406 -1044.070312 363.96875 -1135.992188 493.96875 -1194.984375 C 405.769531 -1114.804688 340.050781 -1021.882812 296.8125 -916.21875 C 253.570312 -810.550781 231.953125 -688.703125 231.953125 -550.671875 C 231.953125 -385.148438 266.601562 -251.414062 335.90625 -149.46875 C 405.207031 -47.53125 494.265625 3.4375 603.078125 3.4375 C 618.535156 3.4375 633.992188 2.148438 649.453125 -0.421875 C 664.921875 -3.003906 681.25 -7.160156 698.4375 -12.890625 L 698.4375 -640.015625 L 626.265625 -522.328125 L 626.265625 -463.046875 C 626.265625 -354.804688 611.226562 -279.921875 581.15625 -238.390625 C 551.09375 -196.867188 499.984375 -163.796875 427.828125 -139.171875 Z M 427.828125 -139.171875 "/></g></g></g></g></g></g></g></g></g></svg>